<svg xmlns="http://www.w3.org/2000/svg" xmlns:xlink="http://www.w3.org/1999/xlink" width="48" height="48" viewBox="0 0 48 48">
  <defs>
    <clipPath id="clip-path">
      <path id="Union_1" data-name="Union 1" d="M7.966,16.15C4.735,14.021-1.773,8.939.455,3.755A7.291,7.291,0,0,1,1.8,1.731,5.411,5.411,0,0,1,8.214.58L8.257.6A3.345,3.345,0,0,0,9.3.9,3.262,3.262,0,0,0,11.123.58a5.537,5.537,0,0,1,.524-.228h0l.006,0q.112-.042.226-.079h0a5.382,5.382,0,0,1,5.661,1.461c5.318,5.834-2.519,12.012-6.171,14.418a3.09,3.09,0,0,1-1.634.51H9.667A3.089,3.089,0,0,1,7.966,16.15Z" fill="#ff737d"/>
    </clipPath>
    <clipPath id="clip-Artboard_1">
      <rect width="48" height="48"/>
    </clipPath>
  </defs>
  <g id="Artboard_1" data-name="Artboard – 1" clip-path="url(#clip-Artboard_1)">
    <rect width="48" height="48" fill="#fff"/>
    <g id="Group_1901" data-name="Group 1901" transform="translate(-4343 -316)">
      <g id="Group_1898" data-name="Group 1898" transform="translate(4374.31 330.337)">
        <path id="Path_5044" data-name="Path 5044" d="M4863.22,795.307l1.487-5.586v-4.972c0-1.043-.874-.818-1.487-.818s-1,.274-1,.818.162-1.865-1.091-1.875-1.345.71-1.345,1.345.139-2.215-1.12-2.215-1.394.3-1.437.871,0,1.449,0,2.3a6.349,6.349,0,0,1-2.271,3.326c-.558.118-.008,2.326,1.344,3.208s1.586,1.712,1.619,2.112,0,1.492,0,1.492Z" transform="translate(-4849.521 -777.511)" fill="#ffc99f"/>
        <path id="clicker" d="M36.55,5.717a1.849,1.849,0,0,0-.738.153,1.874,1.874,0,0,0-1.738-1.189,1.849,1.849,0,0,0-.817.189A1.871,1.871,0,0,0,31.6,3.856a1.848,1.848,0,0,0-.605.1V1.884a1.871,1.871,0,1,0-3.742,0V9.346L25.9,7.8l-.029-.031a1.876,1.876,0,0,0-1.326-.553h-.01a1.851,1.851,0,0,0-1.319.544,1.992,1.992,0,0,0-.094,2.52c.724,1.272,1.511,2.471,2.205,3.529.507.773.987,1.5,1.337,2.108.3.524,1.11,2.224,1.119,2.241a.633.633,0,0,0,.572.362h8a.633.633,0,0,0,.6-.439,32.687,32.687,0,0,0,1.458-6.167V7.6A1.88,1.88,0,0,0,36.55,5.717ZM35.945,7.6a.605.605,0,1,1,1.21,0v4.318A28.916,28.916,0,0,1,35.9,17.26H28.758c-.262-.546-.754-1.557-.995-1.972-.368-.634-.856-1.379-1.374-2.167-.684-1.042-1.459-2.224-2.163-3.461-.184-.323-.352-.759-.111-1a.6.6,0,0,1,.427-.173.618.618,0,0,1,.424.17l2.44,2.792a.633.633,0,0,0,1.109-.416V1.884a.605.605,0,1,1,1.211,0V7.791a.633.633,0,0,0,1.265,0V5.739a.605.605,0,1,1,1.21,0V8.617a.633.633,0,1,0,1.265,0V6.565a.605.605,0,1,1,1.211,0V9.443a.633.633,0,1,0,1.266,0V7.6Z" transform="translate(-22.731 0)"/>
      </g>
      <g id="Group_1899" data-name="Group 1899" transform="translate(4344 330.337)">
        <path id="Path_5045" data-name="Path 5045" d="M4517.553,737.31l1.287-2.561s3.187-4.988,3.558-5.55a1.068,1.068,0,0,0-.309-1.458,1.48,1.48,0,0,0-1.8,0c-.471.495-2.18,2.416-2.18,2.416v-8.65c0-.589-.643-1.4-1.278-1.359a1.594,1.594,0,0,0-1.335,1.359c-.053.647,0,3,0,3.82s-.631-1.25-1.168-1.21a1.488,1.488,0,0,0-1.305,1.21c-.048.66-.554-.588-1.235-.566s-.73,1.639-.73,1.639v2.326a12.486,12.486,0,0,0,.984,4.595,10.426,10.426,0,0,1,.981,3.99Z" transform="translate(-4507.432 -719.514)" fill="#ffc99f"/>
        <path id="clicker-2" data-name="clicker" d="M24.6,5.717a1.849,1.849,0,0,1,.738.153,1.874,1.874,0,0,1,1.738-1.189,1.849,1.849,0,0,1,.817.189,1.871,1.871,0,0,1,1.659-1.015,1.848,1.848,0,0,1,.605.1V1.884a1.871,1.871,0,1,1,3.742,0V9.346L35.248,7.8l.029-.031A1.876,1.876,0,0,1,36.6,7.221h.01a1.851,1.851,0,0,1,1.319.544,1.992,1.992,0,0,1,.094,2.52c-.724,1.272-1.511,2.471-2.205,3.529-.507.773-.987,1.5-1.337,2.108-.3.524-1.11,2.224-1.119,2.241a.633.633,0,0,1-.572.362h-8a.633.633,0,0,1-.6-.439,32.687,32.687,0,0,1-1.458-6.167V7.6A1.88,1.88,0,0,1,24.6,5.717ZM25.207,7.6A.605.605,0,1,0,24,7.6v4.318a28.916,28.916,0,0,0,1.259,5.34h7.138c.262-.546.754-1.557.995-1.972.368-.634.856-1.379,1.374-2.167.684-1.042,1.459-2.224,2.163-3.461.184-.323.352-.759.111-1a.6.6,0,0,0-.427-.173.618.618,0,0,0-.424.17l-2.44,2.792a.633.633,0,0,1-1.109-.416V1.884a.605.605,0,1,0-1.211,0V7.791a.633.633,0,0,1-1.265,0V5.739a.605.605,0,1,0-1.21,0V8.617a.633.633,0,1,1-1.265,0V6.565a.605.605,0,1,0-1.211,0V9.443a.633.633,0,1,1-1.266,0V7.6Z" transform="translate(-22.731 0)"/>
      </g>
      <g id="brain" transform="translate(4357.346 317)">
        <path id="Path_5046" data-name="Path 5046" d="M130.856,23.321a2.5,2.5,0,0,0-.667-1.676,2.839,2.839,0,0,0,.64-1.813,2.514,2.514,0,0,0-1.193-2.117,2.5,2.5,0,0,0,.327-1.239,2.7,2.7,0,0,0-1.775-2.5,2.1,2.1,0,0,0-1.765-2.62,2.858,2.858,0,0,0-.717-1.1,2.419,2.419,0,0,0-1.682-.7,2.324,2.324,0,0,0-.88.181,2.708,2.708,0,0,0-1.622,2.486,2.728,2.728,0,0,0-.837-1.925,2.859,2.859,0,0,0-.727,1.141,2.1,2.1,0,0,0-1.724,2.647,2.7,2.7,0,0,0-1.736,2.531,2.5,2.5,0,0,0,.346,1.234,2.514,2.514,0,0,0-1.161,2.136,2.838,2.838,0,0,0,.668,1.8,2.489,2.489,0,0,0,.291,3.61,2.512,2.512,0,0,0-.072.592,2.633,2.633,0,0,0,2.542,2.629,2.438,2.438,0,0,0,.278-.03,2.973,2.973,0,0,0,.955,1.143,3.149,3.149,0,0,0,1.291-2.546,3.138,3.138,0,0,0,1.721,2.757,2.756,2.756,0,0,0,1.245.289,2.907,2.907,0,0,0,1.678-.546,2.973,2.973,0,0,0,.972-1.184,2.439,2.439,0,0,0,.279.026,2.633,2.633,0,0,0,2.5-2.668,2.514,2.514,0,0,0-.082-.59A2.507,2.507,0,0,0,130.856,23.321Z" transform="translate(-111.913 -9.142)" fill="#ffa8be"/>
        <path id="Path_5047" data-name="Path 5047" d="M296.42,83.841a.42.42,0,1,0-.42-.42A.421.421,0,0,0,296.42,83.841Z" transform="translate(-284.65 -79.511)"/>
        <path id="Path_5048" data-name="Path 5048" d="M196.42,83.841a.42.42,0,1,0-.42-.42A.421.421,0,0,0,196.42,83.841Z" transform="translate(-188.854 -79.511)"/>
        <path id="Path_5049" data-name="Path 5049" d="M26,14.25a2.921,2.921,0,0,0,.878,2.082,3.051,3.051,0,0,0,2.9,3.509h.038a3.314,3.314,0,0,0,5.847-.146,3.314,3.314,0,0,0,5.847.146h.038A3.048,3.048,0,0,0,44.5,16.772a2.691,2.691,0,0,0-.038-.441,2.9,2.9,0,0,0,.337-3.768,3.362,3.362,0,0,0,.541-1.8A2.92,2.92,0,0,0,44.271,8.5,2.842,2.842,0,0,0,44.5,7.4a3.133,3.133,0,0,0-1.7-2.771,2.519,2.519,0,0,0-1.913-2.749A3.028,3.028,0,0,0,38.19,0a2.954,2.954,0,0,0-2.522,1.514A2.954,2.954,0,0,0,33.146,0a3.028,3.028,0,0,0-2.693,1.878A2.519,2.519,0,0,0,28.54,4.627a3.133,3.133,0,0,0-1.7,2.771,2.842,2.842,0,0,0,.224,1.1A2.92,2.92,0,0,0,26,10.761a3.361,3.361,0,0,0,.541,1.8A2.916,2.916,0,0,0,26,14.25ZM38.19.841a2.124,2.124,0,0,1,1.712,1,2.505,2.505,0,0,0-1.394.708.42.42,0,1,0,.594.595A1.682,1.682,0,0,1,41.973,4.33c0,.011,0,.022,0,.033a2.726,2.726,0,0,0-.419-.033A3.048,3.048,0,0,0,38.611,7.4a.42.42,0,1,0,.841,0,2.105,2.105,0,1,1,4.2,0,2.069,2.069,0,0,1-.282,1.029.42.42,0,0,0,.141.562,2.09,2.09,0,0,1,.982,1.771,2.209,2.209,0,0,1-2.1,2.228.42.42,0,0,0,0,.841,2.837,2.837,0,0,0,1.793-.661A2.068,2.068,0,0,1,44.5,14.25a2.093,2.093,0,0,1-.766,1.608.42.42,0,0,0-.14.421,2.074,2.074,0,0,1,.065.493,2.19,2.19,0,0,1-2.244,2.214l-.089-.011a.42.42,0,0,0-.429.241,2.529,2.529,0,0,1-2.283,1.466,2.622,2.622,0,0,1-2.522-2.648,2.525,2.525,0,0,1,2.522-2.522.42.42,0,0,0,0-.841,3.355,3.355,0,0,0-2.522,1.142V7.819a.842.842,0,0,1,.841-.841.42.42,0,1,0,0-.841,1.671,1.671,0,0,0-.841.226V3.069A2.224,2.224,0,0,1,38.19.841ZM27.822,8.99a.42.42,0,0,0,.141-.562A2.069,2.069,0,0,1,27.681,7.4a2.105,2.105,0,1,1,4.2,0,.42.42,0,0,0,.841,0A3.048,3.048,0,0,0,29.783,4.33a2.726,2.726,0,0,0-.419.033c0-.011,0-.022,0-.033a1.682,1.682,0,0,1,2.871-1.189.42.42,0,1,0,.594-.595,2.505,2.505,0,0,0-1.394-.708,2.124,2.124,0,0,1,1.713-1,2.224,2.224,0,0,1,2.1,2.228V6.363a1.671,1.671,0,0,0-.841-.226.42.42,0,0,0,0,.841.842.842,0,0,1,.841.841v7.994a3.355,3.355,0,0,0-2.522-1.142.42.42,0,1,0,0,.841,2.525,2.525,0,0,1,2.522,2.522,2.622,2.622,0,0,1-2.522,2.648,2.529,2.529,0,0,1-2.282-1.466.421.421,0,0,0-.429-.241l-.089.011a2.194,2.194,0,0,1-2.179-2.707.42.42,0,0,0-.14-.421,2.093,2.093,0,0,1-.766-1.608,2.069,2.069,0,0,1,.308-1.082,2.836,2.836,0,0,0,1.793.661.42.42,0,1,0,0-.841,2.21,2.21,0,0,1-2.1-2.228A2.09,2.09,0,0,1,27.822,8.99Z" transform="translate(-26)"/>
        <path id="Path_5050" data-name="Path 5050" d="M108.463,169.323a1.263,1.263,0,0,1-1.2.88.42.42,0,0,0,0,.841,2.1,2.1,0,0,0,2.064-1.707,2.938,2.938,0,0,0,1.579-.724.42.42,0,0,0-.56-.627,2.106,2.106,0,0,1-3.5-1.567.42.42,0,0,0-.841,0A2.947,2.947,0,0,0,108.463,169.323Z" transform="translate(-102.637 -159.022)"/>
        <path id="Path_5051" data-name="Path 5051" d="M106.42,389a.42.42,0,0,0,0,.841,2.224,2.224,0,0,1,2.1,2.228.42.42,0,0,0,.841,0A3.048,3.048,0,0,0,106.42,389Z" transform="translate(-102.637 -372.648)"/>
        <path id="Path_5052" data-name="Path 5052" d="M119.744,309a3.775,3.775,0,0,0-3.291,1.917.42.42,0,0,0,.731.415,2.936,2.936,0,0,1,2.56-1.491.42.42,0,1,0,0-.841Z" transform="translate(-112.598 -296.011)"/>
        <path id="Path_5053" data-name="Path 5053" d="M286.107,168.02a.42.42,0,0,0,.033.594,2.938,2.938,0,0,0,1.579.724,2.1,2.1,0,0,0,2.064,1.707.42.42,0,0,0,0-.841,1.263,1.263,0,0,1-1.2-.88,2.947,2.947,0,0,0,2.463-2.9.42.42,0,0,0-.841,0,2.1,2.1,0,0,1-3.5,1.567A.42.42,0,0,0,286.107,168.02Z" transform="translate(-275.071 -159.022)"/>
        <path id="Path_5054" data-name="Path 5054" d="M328.942,389A3.048,3.048,0,0,0,326,392.068a.42.42,0,0,0,.841,0,2.224,2.224,0,0,1,2.1-2.228.42.42,0,0,0,0-.841Z" transform="translate(-313.389 -372.648)"/>
        <path id="Path_5055" data-name="Path 5055" d="M308.98,311.332a.42.42,0,0,0,.731-.415A3.775,3.775,0,0,0,306.42,309a.42.42,0,0,0,0,.841A2.936,2.936,0,0,1,308.98,311.332Z" transform="translate(-294.23 -296.011)"/>
      </g>
      <g id="Mask_Group_1" data-name="Mask Group 1" transform="translate(4357.328 346.342)" clip-path="url(#clip-path)">
        <g id="padlock" transform="translate(0.073 -0.35)">
          <path id="Path_5058" data-name="Path 5058" d="M82.574,178.918a5.172,5.172,0,0,0-6.128-1.1,3.118,3.118,0,0,1-2.778,0,5.172,5.172,0,0,0-6.128,1.1c-5.077,5.562,2.406,11.452,5.892,13.746a2.957,2.957,0,0,0,3.25,0C80.169,190.37,87.652,184.48,82.574,178.918Z" transform="translate(-65.463 -176.577)" fill="#ff737d"/>
          <path id="Path_5059" data-name="Path 5059" d="M74.038,181.393a4.786,4.786,0,0,0,3.129-3.863,5.293,5.293,0,0,0-.737.3,3.11,3.11,0,0,1-2.773-.011,5.171,5.171,0,0,0-6.119,1.1c-5.077,5.562,2.406,11.452,5.892,13.746a2.956,2.956,0,0,0,2.4.383,14.385,14.385,0,0,1-4.264-6.332A4.329,4.329,0,0,1,74.038,181.393Z" transform="translate(-65.461 -176.582)" fill="#f46262"/>
          <path id="Path_5062" data-name="Path 5062" d="M77.5,168.865a6.425,6.425,0,0,0-1.784-3.72,5.415,5.415,0,0,0-1.23-1,3.633,3.633,0,0,0-.728-.361,5.341,5.341,0,0,0-1.6-.382c-3.189-.782-8.152,0-8.461,0a5.247,5.247,0,0,0-3.555,1.748,6.115,6.115,0,0,0-1.764,4.976c.5,4.017,5.055,7.563,7.724,9.32a3.318,3.318,0,0,0,3.651,0,22.619,22.619,0,0,0,6.1-5.526.364.364,0,0,0-.593-.423,21.9,21.9,0,0,1-5.911,5.34,2.59,2.59,0,0,1-2.85,0,27.123,27.123,0,0,1-4.476-3.633A9.518,9.518,0,0,1,59.1,170.03a5.381,5.381,0,0,1,1.579-4.395,4.66,4.66,0,0,1,2.7-1.466,4.957,4.957,0,0,1,3,.449,3.46,3.46,0,0,0,3.1,0,4.956,4.956,0,0,1,3-.449,4.66,4.66,0,0,1,2.7,1.466,5.717,5.717,0,0,1,1.6,3.3,5.877,5.877,0,0,1-.676,3.182.364.364,0,0,0,.652.323A6.59,6.59,0,0,0,77.5,168.865Zm-8.343-4.9a2.738,2.738,0,0,1-2.454,0,5.7,5.7,0,0,0-2.276-.584c-.768-.115,6.115-.659,7.005,0A5.7,5.7,0,0,0,69.158,163.966Z" transform="translate(-58.336 -163.049)"/>
        </g>
      </g>
    </g>
  </g>
</svg>
