<svg xmlns="http://www.w3.org/2000/svg" xmlns:xlink="http://www.w3.org/1999/xlink" width="48" height="48" viewBox="0 0 48 48">
  <defs>
    <clipPath id="clip-path">
      <path id="Union_1" data-name="Union 1" d="M6.927,14.043C4.118,12.192-1.541,7.773.4,3.265A6.34,6.34,0,0,1,1.561,1.506,4.7,4.7,0,0,1,7.142.5l.037.018a2.909,2.909,0,0,0,.906.261A2.837,2.837,0,0,0,9.672.5a4.815,4.815,0,0,1,.455-.2h0l.005,0q.1-.036.2-.069h0a4.68,4.68,0,0,1,4.922,1.27c4.624,5.073-2.191,10.445-5.366,12.537a2.687,2.687,0,0,1-1.421.443h-.06A2.686,2.686,0,0,1,6.927,14.043Z" transform="translate(0 0)" fill="#ff737d"/>
    </clipPath>
    <clipPath id="clip-AliHasani">
      <rect width="48" height="48"/>
    </clipPath>
  </defs>
  <g id="AliHasani" clip-path="url(#clip-AliHasani)">
    <g id="Group_1901" data-name="Group 1901" transform="translate(-4340 -313)">
      <g id="Group_1898" data-name="Group 1898" transform="translate(4370.357 328.597)">
        <path id="Path_5044" data-name="Path 5044" d="M4862.115,793.571l1.292-4.858V784.39c0-.907-.76-.711-1.292-.711s-.867.238-.867.711.141-1.621-.948-1.631-1.169.617-1.169,1.169.12-1.926-.974-1.926-1.211.263-1.25.757,0,1.26,0,2a5.52,5.52,0,0,1-1.974,2.892c-.486.1-.007,2.023,1.168,2.79s1.378,1.489,1.407,1.837,0,1.3,0,1.3Z" transform="translate(-4850.204 -778.097)" fill="#ffc99f"/>
        <path id="clicker" d="M34.747,4.972a1.608,1.608,0,0,0-.641.133,1.629,1.629,0,0,0-1.512-1.034,1.608,1.608,0,0,0-.71.165,1.627,1.627,0,0,0-1.443-.882,1.607,1.607,0,0,0-.526.089v-1.8a1.627,1.627,0,1,0-3.254,0V8.127L25.49,6.787l-.025-.027a1.631,1.631,0,0,0-1.153-.481H24.3a1.609,1.609,0,0,0-1.147.473,1.732,1.732,0,0,0-.081,2.192c.629,1.106,1.314,2.149,1.917,3.069.441.672.858,1.308,1.163,1.833.264.456.965,1.934.973,1.949a.55.55,0,0,0,.5.314h6.957a.55.55,0,0,0,.524-.382,28.423,28.423,0,0,0,1.268-5.363V6.61A1.634,1.634,0,0,0,34.747,4.972ZM34.221,6.61a.526.526,0,1,1,1.052,0v3.755a25.144,25.144,0,0,1-1.1,4.644H27.972c-.228-.475-.656-1.354-.865-1.715-.32-.551-.745-1.2-1.194-1.884-.595-.906-1.269-1.934-1.881-3.009-.16-.281-.306-.66-.1-.87a.525.525,0,0,1,.372-.151.538.538,0,0,1,.369.148L26.8,9.955a.55.55,0,0,0,.964-.362V1.638a.526.526,0,1,1,1.053,0V6.775a.55.55,0,0,0,1.1,0V4.991a.526.526,0,1,1,1.052,0v2.5a.55.55,0,1,0,1.1,0V5.709a.526.526,0,1,1,1.053,0v2.5a.55.55,0,1,0,1.1,0V6.61Z" transform="translate(-22.731 0)"/>
      </g>
      <g id="Group_1899" data-name="Group 1899" transform="translate(4344 328.597)">
        <path id="Path_5045" data-name="Path 5045" d="M4516.706,735.071l1.118-2.227s2.771-4.337,3.094-4.826a.929.929,0,0,0-.269-1.268,1.287,1.287,0,0,0-1.568,0c-.409.43-1.9,2.1-1.9,2.1V721.33c0-.512-.559-1.215-1.111-1.182a1.385,1.385,0,0,0-1.161,1.182c-.045.563,0,2.609,0,3.321s-.549-1.087-1.016-1.052a1.294,1.294,0,0,0-1.135,1.052c-.041.574-.482-.512-1.074-.493s-.635,1.425-.635,1.425v2.023a10.854,10.854,0,0,0,.855,4,9.069,9.069,0,0,1,.854,3.469Z" transform="translate(-4507.903 -719.596)" fill="#ffc99f"/>
        <path id="clicker-2" data-name="clicker" d="M24.358,4.972A1.608,1.608,0,0,1,25,5.1a1.629,1.629,0,0,1,1.512-1.034,1.608,1.608,0,0,1,.71.165,1.627,1.627,0,0,1,1.443-.882,1.607,1.607,0,0,1,.526.089v-1.8a1.627,1.627,0,1,1,3.254,0V8.127l1.172-1.34.025-.027a1.631,1.631,0,0,1,1.153-.481H34.8a1.609,1.609,0,0,1,1.147.473,1.732,1.732,0,0,1,.081,2.192c-.629,1.106-1.314,2.149-1.917,3.069-.441.672-.858,1.308-1.163,1.833-.264.456-.965,1.934-.973,1.949a.55.55,0,0,1-.5.314H24.523A.55.55,0,0,1,24,15.727a28.423,28.423,0,0,1-1.268-5.363V6.61A1.634,1.634,0,0,1,24.358,4.972Zm.526,1.638a.526.526,0,1,0-1.052,0v3.755a25.144,25.144,0,0,0,1.1,4.644h6.207c.228-.475.656-1.354.865-1.715.32-.551.745-1.2,1.194-1.884.595-.906,1.269-1.934,1.881-3.009.16-.281.306-.66.1-.87A.525.525,0,0,0,34.8,7.38a.538.538,0,0,0-.369.148L32.307,9.955a.55.55,0,0,1-.964-.362V1.638a.526.526,0,1,0-1.053,0V6.775a.55.55,0,0,1-1.1,0V4.991a.526.526,0,1,0-1.052,0v2.5a.55.55,0,1,1-1.1,0V5.709a.526.526,0,1,0-1.053,0v2.5a.55.55,0,1,1-1.1,0V6.61Z" transform="translate(-22.731 0)"/>
      </g>
      <g id="brain" transform="translate(4355.605 317)">
        <path id="Path_5046" data-name="Path 5046" d="M128.877,21.523a2.176,2.176,0,0,0-.58-1.458,2.468,2.468,0,0,0,.557-1.576,2.186,2.186,0,0,0-1.038-1.841,2.17,2.17,0,0,0,.284-1.077,2.348,2.348,0,0,0-1.543-2.177,1.827,1.827,0,0,0-1.535-2.279,2.485,2.485,0,0,0-.624-.96,2.1,2.1,0,0,0-1.463-.612,2.021,2.021,0,0,0-.765.158,2.355,2.355,0,0,0-1.41,2.162,2.372,2.372,0,0,0-.728-1.674,2.486,2.486,0,0,0-.632.993,1.827,1.827,0,0,0-1.5,2.3,2.348,2.348,0,0,0-1.509,2.2,2.17,2.17,0,0,0,.3,1.073,2.186,2.186,0,0,0-1.009,1.857,2.468,2.468,0,0,0,.581,1.567,2.164,2.164,0,0,0,.253,3.139,2.183,2.183,0,0,0-.063.514,2.289,2.289,0,0,0,2.211,2.286,2.121,2.121,0,0,0,.242-.026,2.585,2.585,0,0,0,.83.994,2.738,2.738,0,0,0,1.123-2.214,2.729,2.729,0,0,0,1.5,2.4,2.4,2.4,0,0,0,1.082.251,2.527,2.527,0,0,0,1.459-.475,2.585,2.585,0,0,0,.845-1.03,2.121,2.121,0,0,0,.243.023,2.289,2.289,0,0,0,2.175-2.32,2.183,2.183,0,0,0-.071-.513A2.18,2.18,0,0,0,128.877,21.523Z" transform="translate(-112.405 -9.195)" fill="#ffa8be"/>
        <path id="Path_5047" data-name="Path 5047" d="M296.365,83.731a.366.366,0,1,0-.366-.366A.366.366,0,0,0,296.365,83.731Z" transform="translate(-286.131 -79.966)"/>
        <path id="Path_5048" data-name="Path 5048" d="M196.365,83.731a.366.366,0,1,0-.366-.366A.366.366,0,0,0,196.365,83.731Z" transform="translate(-189.786 -79.966)"/>
        <path id="Path_5049" data-name="Path 5049" d="M26,12.391a2.54,2.54,0,0,0,.764,1.81,2.653,2.653,0,0,0,2.526,3.051h.033a2.882,2.882,0,0,0,5.084-.127,2.882,2.882,0,0,0,5.084.127h.033a2.65,2.65,0,0,0,2.559-2.668,2.34,2.34,0,0,0-.033-.383,2.523,2.523,0,0,0,.293-3.276,2.923,2.923,0,0,0,.471-1.567,2.539,2.539,0,0,0-.926-1.964,2.471,2.471,0,0,0,.195-.96,2.724,2.724,0,0,0-1.478-2.409,2.191,2.191,0,0,0-1.664-2.391A2.633,2.633,0,0,0,36.6,0a2.569,2.569,0,0,0-2.193,1.316A2.569,2.569,0,0,0,32.214,0a2.633,2.633,0,0,0-2.341,1.633,2.19,2.19,0,0,0-1.664,2.391,2.724,2.724,0,0,0-1.478,2.409,2.471,2.471,0,0,0,.195.96A2.539,2.539,0,0,0,26,9.357a2.923,2.923,0,0,0,.471,1.567A2.536,2.536,0,0,0,26,12.391ZM36.6.731a1.847,1.847,0,0,1,1.489.867,2.178,2.178,0,0,0-1.212.616.365.365,0,1,0,.517.517,1.462,1.462,0,0,1,2.5,1.034c0,.01,0,.019,0,.029a2.37,2.37,0,0,0-.365-.029,2.65,2.65,0,0,0-2.559,2.668.366.366,0,0,0,.731,0,1.831,1.831,0,1,1,3.655,0,1.8,1.8,0,0,1-.245.895.366.366,0,0,0,.122.489,1.817,1.817,0,0,1,.854,1.54,1.921,1.921,0,0,1-1.828,1.937.366.366,0,1,0,0,.731,2.467,2.467,0,0,0,1.559-.575,1.8,1.8,0,0,1,.268.94,1.82,1.82,0,0,1-.666,1.4.365.365,0,0,0-.122.366,1.8,1.8,0,0,1,.057.428A1.9,1.9,0,0,1,39.4,16.509l-.077-.01a.365.365,0,0,0-.373.209,2.2,2.2,0,0,1-1.985,1.275,2.28,2.28,0,0,1-2.193-2.3,2.2,2.2,0,0,1,2.193-2.193.366.366,0,0,0,0-.731,2.917,2.917,0,0,0-2.193.993V6.8a.732.732,0,0,1,.731-.731.366.366,0,1,0,0-.731,1.453,1.453,0,0,0-.731.2V2.668A1.934,1.934,0,0,1,36.6.731ZM27.585,7.817a.365.365,0,0,0,.122-.489,1.8,1.8,0,0,1-.245-.895,1.831,1.831,0,1,1,3.655,0,.366.366,0,0,0,.731,0A2.65,2.65,0,0,0,29.29,3.765a2.37,2.37,0,0,0-.365.029c0-.01,0-.019,0-.029a1.462,1.462,0,0,1,2.5-1.034.366.366,0,1,0,.517-.517A2.178,2.178,0,0,0,30.725,1.6,1.847,1.847,0,0,1,32.214.731a1.934,1.934,0,0,1,1.828,1.937V5.533a1.453,1.453,0,0,0-.731-.2.366.366,0,0,0,0,.731.732.732,0,0,1,.731.731V13.75a2.917,2.917,0,0,0-2.193-.993.366.366,0,1,0,0,.731,2.2,2.2,0,0,1,2.193,2.193,2.28,2.28,0,0,1-2.193,2.3,2.2,2.2,0,0,1-1.985-1.275.366.366,0,0,0-.373-.209l-.077.01a1.907,1.907,0,0,1-1.895-2.353.365.365,0,0,0-.122-.366,1.82,1.82,0,0,1-.666-1.4A1.8,1.8,0,0,1,27,11.45a2.466,2.466,0,0,0,1.559.575.366.366,0,1,0,0-.731,1.921,1.921,0,0,1-1.828-1.937A1.817,1.817,0,0,1,27.585,7.817Z" transform="translate(-26)"/>
        <path id="Path_5050" data-name="Path 5050" d="M108.142,168.89a1.1,1.1,0,0,1-1.045.765.366.366,0,0,0,0,.731,1.83,1.83,0,0,0,1.795-1.484,2.555,2.555,0,0,0,1.373-.63.366.366,0,0,0-.487-.545,1.831,1.831,0,0,1-3.046-1.362.366.366,0,1,0-.731,0A2.562,2.562,0,0,0,108.142,168.89Z" transform="translate(-103.076 -159.932)"/>
        <path id="Path_5051" data-name="Path 5051" d="M106.366,389a.366.366,0,0,0,0,.731,1.934,1.934,0,0,1,1.828,1.937.366.366,0,1,0,.731,0A2.65,2.65,0,0,0,106.366,389Z" transform="translate(-103.076 -374.781)"/>
        <path id="Path_5052" data-name="Path 5052" d="M119.308,309a3.283,3.283,0,0,0-2.862,1.667.366.366,0,0,0,.636.361,2.553,2.553,0,0,1,2.226-1.3.366.366,0,0,0,0-.731Z" transform="translate(-113.094 -297.706)"/>
        <path id="Path_5053" data-name="Path 5053" d="M286.093,167.756a.365.365,0,0,0,.029.516,2.554,2.554,0,0,0,1.373.63,1.83,1.83,0,0,0,1.795,1.484.366.366,0,0,0,0-.731,1.1,1.1,0,0,1-1.045-.765,2.562,2.562,0,0,0,2.142-2.524.366.366,0,1,0-.731,0,1.828,1.828,0,0,1-3.046,1.362A.365.365,0,0,0,286.093,167.756Z" transform="translate(-276.496 -159.932)"/>
        <path id="Path_5054" data-name="Path 5054" d="M328.559,389A2.65,2.65,0,0,0,326,391.668a.365.365,0,1,0,.731,0,1.934,1.934,0,0,1,1.828-1.937.366.366,0,0,0,0-.731Z" transform="translate(-315.034 -374.781)"/>
        <path id="Path_5055" data-name="Path 5055" d="M308.591,311.028a.366.366,0,0,0,.636-.361A3.283,3.283,0,0,0,306.365,309a.366.366,0,0,0,0,.731A2.553,2.553,0,0,1,308.591,311.028Z" transform="translate(-295.766 -297.706)"/>
      </g>
      <g id="Mask_Group_1" data-name="Mask Group 1" transform="translate(4352.98 342.514)" clip-path="url(#clip-path)">
        <g id="padlock" transform="translate(0.064 -0.305)">
          <path id="Path_5058" data-name="Path 5058" d="M80.39,178.7a4.5,4.5,0,0,0-5.329-.955,2.711,2.711,0,0,1-2.415,0,4.5,4.5,0,0,0-5.329.955c-4.415,4.836,2.092,9.958,5.123,11.953a2.571,2.571,0,0,0,2.826,0C78.3,188.661,84.8,183.539,80.39,178.7Z" transform="translate(-65.51 -176.667)" fill="#ff737d"/>
          <path id="Path_5059" data-name="Path 5059" d="M72.967,180.856a4.162,4.162,0,0,0,2.721-3.359,4.6,4.6,0,0,0-.641.262,2.7,2.7,0,0,1-2.411-.01,4.5,4.5,0,0,0-5.321.959c-4.415,4.836,2.092,9.958,5.123,11.953a2.571,2.571,0,0,0,2.086.333,12.509,12.509,0,0,1-3.707-5.506A3.765,3.765,0,0,1,72.967,180.856Z" transform="translate(-65.508 -176.672)" fill="#f46262"/>
          <path id="Path_5062" data-name="Path 5062" d="M75,168.106a5.587,5.587,0,0,0-1.551-3.235A4.709,4.709,0,0,0,72.38,164a3.159,3.159,0,0,0-.633-.314,4.644,4.644,0,0,0-1.389-.333c-2.773-.68-7.088,0-7.358,0a4.562,4.562,0,0,0-3.091,1.52,5.318,5.318,0,0,0-1.534,4.327c.437,3.493,4.4,6.577,6.717,8.1a2.885,2.885,0,0,0,3.174,0,19.668,19.668,0,0,0,5.308-4.8.317.317,0,0,0-.515-.368,19.044,19.044,0,0,1-5.14,4.644,2.252,2.252,0,0,1-2.478,0,23.584,23.584,0,0,1-3.892-3.159,8.276,8.276,0,0,1-2.544-4.5,4.679,4.679,0,0,1,1.373-3.821,4.052,4.052,0,0,1,2.348-1.275,4.31,4.31,0,0,1,2.606.39,3.009,3.009,0,0,0,2.7,0,4.309,4.309,0,0,1,2.606-.39,4.052,4.052,0,0,1,2.348,1.275,4.971,4.971,0,0,1,1.388,2.869,5.11,5.11,0,0,1-.587,2.767.317.317,0,1,0,.567.281A5.73,5.73,0,0,0,75,168.106Zm-7.254-4.26a2.38,2.38,0,0,1-2.134,0,4.954,4.954,0,0,0-1.979-.507c-.667-.1,5.317-.573,6.091,0A4.955,4.955,0,0,0,67.746,163.846Z" transform="translate(-58.336 -163.049)"/>
        </g>
      </g>
    </g>
  </g>
</svg>
